<svg xmlns="http://www.w3.org/2000/svg" xmlns:xlink="http://www.w3.org/1999/xlink" viewBox="0 0 269.56 61.29"><defs><style>.cls-1{fill:#1a1724;}.cls-2{fill:url(#linear-gradient);}.cls-3{fill:url(#linear-gradient-2);}.cls-4{fill:url(#linear-gradient-3);}.cls-5{fill:url(#linear-gradient-4);}.cls-6{fill:url(#linear-gradient-5);}.cls-7{fill:url(#linear-gradient-6);}</style><linearGradient id="linear-gradient" x1="175.07" y1="51.88" x2="175.07" y2="15.6" gradientUnits="userSpaceOnUse"><stop offset="0" stop-color="#fa2a52"/><stop offset="0.46" stop-color="#fa5240"/><stop offset="1" stop-color="#fb7a2e"/></linearGradient><linearGradient id="linear-gradient-2" x1="197.76" y1="51.88" x2="197.76" y2="15.6" xlink:href="#linear-gradient"/><linearGradient id="linear-gradient-3" x1="212.59" y1="51.88" x2="212.59" y2="15.6" xlink:href="#linear-gradient"/><linearGradient id="linear-gradient-4" x1="231.53" y1="51.88" x2="231.53" y2="15.6" xlink:href="#linear-gradient"/><linearGradient id="linear-gradient-5" x1="258.38" y1="51.88" x2="258.38" y2="15.6" xlink:href="#linear-gradient"/><linearGradient id="linear-gradient-6" x1="6.56" y1="58.96" x2="59.45" y2="6.8" xlink:href="#linear-gradient"/></defs><g id="Layer_2" data-name="Layer 2"><g id="Layer_1-2" data-name="Layer 1"><path class="cls-1" d="M78.06,48.16a12.45,12.45,0,0,1-2.48.8,14.87,14.87,0,0,1-3.15.31,15.88,15.88,0,0,1-4.71-.69,9.88,9.88,0,0,1-3.89-2.24,10.85,10.85,0,0,1-2.65-4,16.38,16.38,0,0,1-1-6.07,15.39,15.39,0,0,1,1-5.73A11.09,11.09,0,0,1,64,26.34a12.18,12.18,0,0,1,4.41-2.54A18.08,18.08,0,0,1,74.15,23a19,19,0,0,1,5.65.8,16.1,16.1,0,0,1,4,1.74,6.11,6.11,0,0,1,1.66,1.62,4.08,4.08,0,0,1,.6,2.29V50.2a11,11,0,0,1-1,5,9.42,9.42,0,0,1-2.89,3.45,13,13,0,0,1-4.33,2,20.82,20.82,0,0,1-5.36.66,23.51,23.51,0,0,1-5.15-.49,11.7,11.7,0,0,1-3.45-1.27A4.13,4.13,0,0,1,62,56a4.61,4.61,0,0,1,.5-2.13,3.91,3.91,0,0,1,1.1-1.4A18.59,18.59,0,0,0,67.11,54a14.25,14.25,0,0,0,4.28.64,9.44,9.44,0,0,0,4.88-1.08A3.83,3.83,0,0,0,78.06,50Zm-4.14-5.24a7.05,7.05,0,0,0,2.29-.33A6.47,6.47,0,0,0,78,41.71V30.4c-.44-.19-.93-.37-1.46-.56a6.39,6.39,0,0,0-2-.27A5.76,5.76,0,0,0,70.2,31.2q-1.64,1.62-1.63,5.1A10.07,10.07,0,0,0,69,39.44a5.37,5.37,0,0,0,1.13,2.05,4.07,4.07,0,0,0,1.68,1.1A6.5,6.5,0,0,0,73.92,42.92Z"/><path class="cls-1" d="M96.35,50.7a6.09,6.09,0,0,1-3.56-.8q-1.08-.8-1.08-3.12V14.4a13.2,13.2,0,0,1,1.57-.33,14.07,14.07,0,0,1,2.24-.17,6,6,0,0,1,3.53.83c.73.55,1.1,1.6,1.1,3.14V50.26a12.91,12.91,0,0,1-1.6.3A16.39,16.39,0,0,1,96.35,50.7Z"/><path class="cls-1" d="M129,48.77a15.37,15.37,0,0,1-4.36,1.74,24.32,24.32,0,0,1-5.74.63,21.54,21.54,0,0,1-5.41-.63,11.22,11.22,0,0,1-4.16-2A9.4,9.4,0,0,1,106.66,45a12.15,12.15,0,0,1-1-5.08v-16c.4-.11.94-.22,1.6-.33a12.37,12.37,0,0,1,2.2-.17,5.92,5.92,0,0,1,3.56.83c.72.55,1.08,1.6,1.08,3.14V39.89a4.4,4.4,0,0,0,1.27,3.55A5.35,5.35,0,0,0,119,44.52a9.55,9.55,0,0,0,2.4-.25,6.35,6.35,0,0,0,1.47-.52V23.89a12.91,12.91,0,0,1,1.54-.33,12.48,12.48,0,0,1,2.21-.17,6.05,6.05,0,0,1,3.58.83c.74.55,1.11,1.6,1.11,3.14V44.8A4.4,4.4,0,0,1,129,48.77Z"/><path class="cls-1" d="M143.86,40.55a5.38,5.38,0,0,0,2.71,3.28,9.91,9.91,0,0,0,4.47,1,14.46,14.46,0,0,0,4.36-.64,14.72,14.72,0,0,0,3.31-1.41,4.75,4.75,0,0,1,1.38,1.44,3.64,3.64,0,0,1,.55,1.93,3.35,3.35,0,0,1-.78,2.21,6,6,0,0,1-2.12,1.57,12.21,12.21,0,0,1-3.2.94,25.31,25.31,0,0,1-4,.3,19,19,0,0,1-6-.91,13.16,13.16,0,0,1-4.74-2.7,12.36,12.36,0,0,1-3.12-4.5,16.43,16.43,0,0,1-1.13-6.34,15.31,15.31,0,0,1,1.13-6.13,12.32,12.32,0,0,1,3-4.3A12,12,0,0,1,144,23.75a16.31,16.31,0,0,1,5.05-.8,14.94,14.94,0,0,1,5.16.85,12,12,0,0,1,4,2.4,11,11,0,0,1,2.62,3.7,11.69,11.69,0,0,1,.94,4.69,3.49,3.49,0,0,1-.94,2.65,5,5,0,0,1-2.65,1.16Zm5.25-11.37a5.59,5.59,0,0,0-4,1.46,6.46,6.46,0,0,0-1.85,4.23l10.54-1.71a4.39,4.39,0,0,0-4.74-4Z"/><path class="cls-2" d="M185.36,43.2A6.87,6.87,0,0,1,182.6,49c-1.84,1.4-4.5,2.1-8,2.1a21.36,21.36,0,0,1-4-.34,13,13,0,0,1-3.12-.93,6.12,6.12,0,0,1-2-1.44,2.71,2.71,0,0,1-.72-1.82,3.09,3.09,0,0,1,.41-1.54,3.25,3.25,0,0,1,1.14-1.16,21.93,21.93,0,0,0,3.53,1.82,12,12,0,0,0,4.63.83,7,7,0,0,0,3.81-.86,2.75,2.75,0,0,0,1.32-2.45,2.83,2.83,0,0,0-.91-2.21A6.27,6.27,0,0,0,176,39.72l-3.76-1A12.37,12.37,0,0,1,166.77,36,6.21,6.21,0,0,1,165,31.33a7,7,0,0,1,.66-3,6.72,6.72,0,0,1,2-2.43,9.76,9.76,0,0,1,3.23-1.6,15.25,15.25,0,0,1,4.41-.58,20.07,20.07,0,0,1,3.62.3,13.21,13.21,0,0,1,2.81.83,5.05,5.05,0,0,1,1.85,1.3,2.5,2.5,0,0,1,.66,1.65,2.84,2.84,0,0,1-.39,1.52,3,3,0,0,1-1,1A17.75,17.75,0,0,0,179.87,29a12.14,12.14,0,0,0-4.22-.72,7,7,0,0,0-3.64.8,2.5,2.5,0,0,0-1.33,2.23,2.43,2.43,0,0,0,.75,1.83A5.72,5.72,0,0,0,174,34.31l3.2.83a14.24,14.24,0,0,1,6.18,3A6.63,6.63,0,0,1,185.36,43.2Z"/><path class="cls-3" d="M197.18,45.57a5.52,5.52,0,0,0,3.25.83,7.57,7.57,0,0,0,2-.28,9.15,9.15,0,0,0,1.82-.66,5.13,5.13,0,0,1,.69,1,2.77,2.77,0,0,1-1.16,3.7,8.38,8.38,0,0,1-4.44.94,10.69,10.69,0,0,1-6.59-1.85c-1.64-1.23-2.46-3.27-2.46-6.1V17.38c.26-.08.63-.17,1.1-.28a7,7,0,0,1,1.55-.17,3.68,3.68,0,0,1,2.34.61,2.5,2.5,0,0,1,.75,2V25h8.55A4,4,0,0,1,205,26a4.16,4.16,0,0,1,.2,1.27q0,2.37-2,2.37H196V42.75A3.21,3.21,0,0,0,197.18,45.57Z"/><path class="cls-4" d="M209.12,16.55a3.21,3.21,0,0,1,1-2.4,3.51,3.51,0,0,1,2.54-1,3.32,3.32,0,0,1,2.48,1,3.28,3.28,0,0,1,.94,2.4,3.28,3.28,0,0,1-.94,2.4,3.31,3.31,0,0,1-2.48,1,3.5,3.5,0,0,1-2.54-1A3.21,3.21,0,0,1,209.12,16.55Zm6.4,33.65a6.4,6.4,0,0,1-1.08.31,8.23,8.23,0,0,1-1.57.13,3.82,3.82,0,0,1-2.37-.6,2.45,2.45,0,0,1-.78-2V24.66l1.13-.28a6.86,6.86,0,0,1,1.58-.16,3.73,3.73,0,0,1,2.34.6,2.58,2.58,0,0,1,.75,2.1Z"/><path class="cls-5" d="M234.68,28.41a8.87,8.87,0,0,0-3.26.58,6.86,6.86,0,0,0-2.56,1.74,8.45,8.45,0,0,0-1.71,2.84,10.83,10.83,0,0,0-.64,3.89c0,2.9.76,5.12,2.26,6.65a8,8,0,0,0,5.91,2.29,10.27,10.27,0,0,0,3.58-.56,10.92,10.92,0,0,0,2.6-1.32,4.21,4.21,0,0,1,1.16,1,2.48,2.48,0,0,1,.44,1.49c0,1.14-.75,2.09-2.24,2.87a12.82,12.82,0,0,1-5.87,1.16,17.71,17.71,0,0,1-5.55-.83,11.46,11.46,0,0,1-4.33-2.54,11.76,11.76,0,0,1-2.84-4.28,16.11,16.11,0,0,1-1-6,15.78,15.78,0,0,1,1.07-6,12.2,12.2,0,0,1,2.93-4.3,12,12,0,0,1,4.33-2.56,16,16,0,0,1,5.24-.86,14.92,14.92,0,0,1,3.28.33A9.54,9.54,0,0,1,240,25a5.16,5.16,0,0,1,1.63,1.33,2.48,2.48,0,0,1,.58,1.57,2.61,2.61,0,0,1-.41,1.41,2.91,2.91,0,0,1-1,1A16.18,16.18,0,0,0,238.18,29,9.63,9.63,0,0,0,234.68,28.41Z"/><path class="cls-6" d="M251.87,50.51a7.87,7.87,0,0,1-1.51.13A3.88,3.88,0,0,1,248,50a2.47,2.47,0,0,1-.77-2V14.51c.26-.08.63-.17,1.11-.28a6.8,6.8,0,0,1,1.54-.16,3.74,3.74,0,0,1,2.35.6,2.52,2.52,0,0,1,.74,2V35.2L264.32,24a4.75,4.75,0,0,1,2.78.82,2.4,2.4,0,0,1,1,2,2.67,2.67,0,0,1-.66,1.77,19.72,19.72,0,0,1-1.93,1.87l-7.34,6.46,11.37,10.37a4.41,4.41,0,0,1-1,2.51,2.8,2.8,0,0,1-2.23.91,3.51,3.51,0,0,1-2-.55,9.52,9.52,0,0,1-1.85-1.66L253,38.34V50.2A6.4,6.4,0,0,1,251.87,50.51Z"/><path class="cls-7" d="M63.05,17.2l2.87-2.87L51.59,0,43,8.6h0L11.46,40.12,22.93,51.59l-5.65,5.65h-5.9L5.73,51.59l5.73-5.73L8.6,43,0,51.59l9.7,9.7H19l6.83-6.84,0,0L60.19,20.06,48.72,8.6l2.87-2.87Z"/></g></g></svg>